<svg width="356" height="164" viewBox="0 0 356 164" fill="none" xmlns="http://www.w3.org/2000/svg">
<path d="M356 22L0 141L214.761 27.0556L171.551 131.278L356 22Z" fill="#EDEEFF" fill-opacity="0.25"/>
<path d="M20.9219 102V96.9375H29.3594V55.7812H20.9219V50.6719H44.6406V55.7812H36.0156V96.9375H44.6406V102H20.9219ZM68.0312 102.844C63.75 102.844 60.3281 101.297 57.7656 98.2031C55.2344 95.1094 53.9688 90.9844 53.9688 85.8281C53.9688 81.6719 54.7031 78.0781 56.1719 75.0469C57.6719 71.9844 59.6875 69.625 62.2188 67.9688C64.75 66.2812 67.5781 65.4375 70.7031 65.4375C72.1719 65.4375 73.75 65.75 75.4375 66.375C77.125 66.9688 78.6406 67.6562 79.9844 68.4375V58.5938C79.9844 55.7812 79.9219 53.3125 79.7969 51.1875C79.7031 49.0312 79.4844 47.2188 79.1406 45.75H86.5V83.3906C86.5 87.8281 86.75 91.5469 87.25 94.5469C87.75 97.5469 88.375 100.031 89.125 102H82.7969C82.5469 101.406 82.2344 100.5 81.8594 99.2812C81.5156 98.0625 81.1875 96.8125 80.875 95.5312C77.4375 100.406 73.1562 102.844 68.0312 102.844ZM69.2969 97.2656C70.7344 97.2656 72.1406 96.8125 73.5156 95.9062C74.9219 95 76.1875 93.8281 77.3125 92.3906C78.4688 90.9531 79.3594 89.4688 79.9844 87.9375V74.0625C78.2656 73.125 76.7188 72.4531 75.3438 72.0469C74 71.6406 72.4531 71.4375 70.7031 71.4375C68.0469 71.4375 65.6719 72.625 63.5781 75C61.5156 77.3438 60.4844 80.6094 60.4844 84.7969C60.4844 88.8594 61.1875 91.9531 62.5938 94.0781C64 96.2031 66.2344 97.2656 69.2969 97.2656ZM98.7812 102C98.7812 102 98.7812 101.375 98.7812 100.125C98.7812 98.8438 98.7812 97.2188 98.7812 95.25C98.7812 93.2812 98.7812 91.2344 98.7812 89.1094C98.7812 86.9844 98.7812 85.0781 98.7812 83.3906C98.7812 79.9531 98.75 76.6875 98.6875 73.5938C98.6562 70.4688 98.5156 67.9844 98.2656 66.1406H105.297V85.3125C105.297 86.8125 105.312 88.6406 105.344 90.7969C105.406 92.9219 105.484 95.0156 105.578 97.0781C105.703 99.1094 105.844 100.75 106 102H98.7812ZM101.969 59.4844C100.656 59.4844 99.5938 59.0156 98.7812 58.0781C97.9688 57.1406 97.5625 56.0312 97.5625 54.75C97.5625 53.4375 97.9688 52.3125 98.7812 51.375C99.5938 50.4375 100.656 49.9688 101.969 49.9688C103.281 49.9688 104.359 50.4375 105.203 51.375C106.078 52.3125 106.516 53.4375 106.516 54.75C106.516 56.0312 106.078 57.1406 105.203 58.0781C104.359 59.0156 103.281 59.4844 101.969 59.4844ZM126.766 102.844C123.453 102.844 120.719 101.859 118.562 99.8906C116.406 97.9219 115.328 95.6406 115.328 93.0469C115.328 91.2656 115.734 89.4844 116.547 87.7031C117.391 85.9219 118.828 84.375 120.859 83.0625C122.922 81.75 125.766 80.9219 129.391 80.5781C130.203 80.4844 131.266 80.375 132.578 80.25C133.891 80.125 135.141 80.0156 136.328 79.9219C137.547 79.7969 138.391 79.7188 138.859 79.6875V77.0625C138.859 74.9375 138.109 73.4062 136.609 72.4688C135.141 71.5312 133.078 71.0625 130.422 71.0625C128.578 71.0625 126.719 71.4375 124.844 72.1875C123 72.9375 121.062 74.0312 119.031 75.4688C119.031 74.6875 119.062 73.5469 119.125 72.0469C119.188 70.5156 119.266 69.375 119.359 68.625C121.172 67.8438 123.062 67.125 125.031 66.4688C127.031 65.7812 129.359 65.4375 132.016 65.4375C136.078 65.4375 139.312 66.3906 141.719 68.2969C144.156 70.1719 145.375 72.5 145.375 75.2812V89.0156C145.375 91.5469 145.609 93.8594 146.078 95.9531C146.578 98.0156 147.219 100.031 148 102H141.672C141.453 101.438 141.172 100.672 140.828 99.7031C140.484 98.7344 140.188 97.6875 139.938 96.5625C137.844 98.7812 135.672 100.391 133.422 101.391C131.172 102.359 128.953 102.844 126.766 102.844ZM127.797 97.0781C129.609 97.0781 131.375 96.7031 133.094 95.9531C134.844 95.2031 136.766 93.4219 138.859 90.6094V84.6094C138.297 84.6406 137.422 84.7188 136.234 84.8438C135.078 84.9375 133.891 85.0469 132.672 85.1719C131.453 85.2969 130.469 85.4062 129.719 85.5C126.75 85.8438 124.656 86.6406 123.438 87.8906C122.25 89.1094 121.656 90.5312 121.656 92.1562C121.656 93.7188 122.203 94.9375 123.297 95.8125C124.391 96.6562 125.891 97.0781 127.797 97.0781ZM156.812 102C156.812 102 156.812 101.219 156.812 99.6562C156.812 98.0938 156.812 96.1406 156.812 93.7969C156.812 91.4219 156.812 89.0312 156.812 86.625C156.812 84.1875 156.812 82.1094 156.812 80.3906C156.812 76.9531 156.609 74.0312 156.203 71.625C155.828 69.1875 155.438 67.3594 155.031 66.1406H161.359C161.641 66.8906 161.906 68.0156 162.156 69.5156C162.438 71.0156 162.641 72.1875 162.766 73.0312C165.016 70.3438 167.281 68.4062 169.562 67.2188C171.844 66.0312 174.219 65.4375 176.688 65.4375C180.406 65.4375 183.266 66.6719 185.266 69.1406C187.266 71.5781 188.266 75.2188 188.266 80.0625C188.266 81.2188 188.266 82.7188 188.266 84.5625C188.266 86.375 188.266 88.2812 188.266 90.2812C188.266 92.2812 188.266 94.1719 188.266 95.9531C188.266 97.7344 188.266 99.1875 188.266 100.312C188.266 101.438 188.266 102 188.266 102H181.75C181.75 102 181.75 101.25 181.75 99.75C181.75 98.2188 181.75 96.3594 181.75 94.1719C181.75 91.9531 181.75 89.7969 181.75 87.7031C181.75 85.5781 181.75 83.9062 181.75 82.6875C181.75 78.2812 181.172 75.3438 180.016 73.875C178.891 72.375 177.125 71.625 174.719 71.625C173.031 71.625 171.406 72.125 169.844 73.125C168.312 74.125 166.969 75.3906 165.812 76.9219C164.688 78.4531 163.859 80.0156 163.328 81.6094V102H156.812ZM207.766 102.844C204.453 102.844 201.719 101.859 199.562 99.8906C197.406 97.9219 196.328 95.6406 196.328 93.0469C196.328 91.2656 196.734 89.4844 197.547 87.7031C198.391 85.9219 199.828 84.375 201.859 83.0625C203.922 81.75 206.766 80.9219 210.391 80.5781C211.203 80.4844 212.266 80.375 213.578 80.25C214.891 80.125 216.141 80.0156 217.328 79.9219C218.547 79.7969 219.391 79.7188 219.859 79.6875V77.0625C219.859 74.9375 219.109 73.4062 217.609 72.4688C216.141 71.5312 214.078 71.0625 211.422 71.0625C209.578 71.0625 207.719 71.4375 205.844 72.1875C204 72.9375 202.062 74.0312 200.031 75.4688C200.031 74.6875 200.062 73.5469 200.125 72.0469C200.188 70.5156 200.266 69.375 200.359 68.625C202.172 67.8438 204.062 67.125 206.031 66.4688C208.031 65.7812 210.359 65.4375 213.016 65.4375C217.078 65.4375 220.312 66.3906 222.719 68.2969C225.156 70.1719 226.375 72.5 226.375 75.2812V89.0156C226.375 91.5469 226.609 93.8594 227.078 95.9531C227.578 98.0156 228.219 100.031 229 102H222.672C222.453 101.438 222.172 100.672 221.828 99.7031C221.484 98.7344 221.188 97.6875 220.938 96.5625C218.844 98.7812 216.672 100.391 214.422 101.391C212.172 102.359 209.953 102.844 207.766 102.844ZM208.797 97.0781C210.609 97.0781 212.375 96.7031 214.094 95.9531C215.844 95.2031 217.766 93.4219 219.859 90.6094V84.6094C219.297 84.6406 218.422 84.7188 217.234 84.8438C216.078 84.9375 214.891 85.0469 213.672 85.1719C212.453 85.2969 211.469 85.4062 210.719 85.5C207.75 85.8438 205.656 86.6406 204.438 87.8906C203.25 89.1094 202.656 90.5312 202.656 92.1562C202.656 93.7188 203.203 94.9375 204.297 95.8125C205.391 96.6562 206.891 97.0781 208.797 97.0781ZM239.031 102V62.2969C239.031 55.3281 238.797 49.8125 238.328 45.75H245.547V85.3125C245.547 86.8125 245.562 88.6406 245.594 90.7969C245.656 92.9219 245.734 95 245.828 97.0312C245.953 99.0625 246.094 100.719 246.25 102H239.031ZM272.453 102.844C269.484 102.844 266.703 102.156 264.109 100.781C261.547 99.4062 259.484 97.3594 257.922 94.6406C256.359 91.9219 255.578 88.5781 255.578 84.6094C255.578 78.7969 257.094 74.1562 260.125 70.6875C263.156 67.1875 267.266 65.4375 272.453 65.4375C276.328 65.4375 279.312 66.2969 281.406 68.0156C283.5 69.7031 284.953 71.8281 285.766 74.3906C286.609 76.9531 287.031 79.5625 287.031 82.2188C287.031 82.5312 287.031 82.9844 287.031 83.5781C287.031 84.1719 287.016 84.6406 286.984 84.9844H260.828V80.0625H280.703C280.703 77.0312 279.875 74.7188 278.219 73.125C276.562 71.5312 274.469 70.7344 271.938 70.7344C268.844 70.7344 266.422 71.8281 264.672 74.0156C262.953 76.2031 262.094 79.625 262.094 84.2812C262.094 88.625 263.141 91.8438 265.234 93.9375C267.359 96.0312 270.062 97.0781 273.344 97.0781C275.594 97.0781 277.812 96.8281 280 96.3281C282.188 95.7969 284.359 94.875 286.516 93.5625L287.219 99.375C284.719 100.656 282.297 101.547 279.953 102.047C277.641 102.578 275.141 102.844 272.453 102.844ZM299.599 102.364C298.478 102.364 297.516 101.962 296.713 101.159C295.91 100.356 295.509 99.3939 295.509 98.2727C295.509 97.1515 295.91 96.1894 296.713 95.3864C297.516 94.5833 298.478 94.1818 299.599 94.1818C300.721 94.1818 301.683 94.5833 302.486 95.3864C303.289 96.1894 303.69 97.1515 303.69 98.2727C303.69 99.0152 303.501 99.697 303.122 100.318C302.759 100.939 302.266 101.439 301.645 101.818C301.039 102.182 300.357 102.364 299.599 102.364ZM313.543 91.5V102H310.861V78.7273H313.543V87.2727H313.77C314.179 86.3712 314.793 85.6553 315.611 85.125C316.437 84.5871 317.535 84.3182 318.906 84.3182C320.096 84.3182 321.137 84.5568 322.031 85.0341C322.925 85.5038 323.618 86.2273 324.111 87.2045C324.611 88.1742 324.861 89.4091 324.861 90.9091V102H322.179V91.0909C322.179 89.7045 321.819 88.6326 321.099 87.875C320.387 87.1098 319.399 86.7273 318.134 86.7273C317.255 86.7273 316.467 86.9129 315.77 87.2841C315.08 87.6553 314.535 88.197 314.134 88.9091C313.74 89.6212 313.543 90.4848 313.543 91.5ZM329.767 102V84.5455H332.358V87.1818H332.54C332.858 86.3182 333.434 85.6174 334.267 85.0795C335.1 84.5417 336.04 84.2727 337.085 84.2727C337.282 84.2727 337.528 84.2765 337.824 84.2841C338.119 84.2917 338.343 84.303 338.494 84.3182V87.0455C338.403 87.0227 338.195 86.9886 337.869 86.9432C337.551 86.8902 337.214 86.8636 336.858 86.8636C336.009 86.8636 335.252 87.0417 334.585 87.3977C333.926 87.7462 333.403 88.2311 333.017 88.8523C332.638 89.4659 332.449 90.1667 332.449 90.9545V102H329.767Z" fill="#CFA616"/>
</svg>
